<?xml version="1.0" encoding="UTF-8" standalone="no"?>
<!-- Created with Inkscape (http://www.inkscape.org/) -->

<svg
   xmlns:dc="http://purl.org/dc/elements/1.1/"
   xmlns:cc="http://creativecommons.org/ns#"
   xmlns:rdf="http://www.w3.org/1999/02/22-rdf-syntax-ns#"
   xmlns:svg="http://www.w3.org/2000/svg"
   xmlns="http://www.w3.org/2000/svg"
   xmlns:sodipodi="http://sodipodi.sourceforge.net/DTD/sodipodi-0.dtd"
   xmlns:inkscape="http://www.inkscape.org/namespaces/inkscape"
   width="128"
   height="128"
   viewBox="0 0 128 128"
   id="svg2"
   version="1.1"
   inkscape:version="0.91 r13725"
   sodipodi:docname="Rust_T.svg">
  <defs
     id="defs4" />
  <sodipodi:namedview
     id="base"
     pagecolor="#ffffff"
     bordercolor="#666666"
     borderopacity="1.0"
     inkscape:pageopacity="0.0"
     inkscape:pageshadow="2"
     inkscape:zoom="6.4453125"
     inkscape:cx="70.073467"
     inkscape:cy="64"
     inkscape:document-units="px"
     inkscape:current-layer="layer1"
     showgrid="false"
     inkscape:window-width="1920"
     inkscape:window-height="1015"
     inkscape:window-x="0"
     inkscape:window-y="0"
     inkscape:window-maximized="1"
     units="px" />
  <metadata
     id="metadata7">
    <rdf:RDF>
      <cc:Work
         rdf:about="">
        <dc:format>image/svg+xml</dc:format>
        <dc:type
           rdf:resource="http://purl.org/dc/dcmitype/StillImage" />
        <dc:title></dc:title>
      </cc:Work>
    </rdf:RDF>
  </metadata>
  <g
     inkscape:label="Ebene 1"
     inkscape:groupmode="layer"
     id="layer1"
     transform="translate(0,-924.36216)">
    <path
       id="path4192"
       d="m 31.416166,963.69629 a 1.9182301,1.9182301 0 1 1 3.83646,0 1.9182301,1.9182301 0 0 1 -3.83646,0 M 8.5325691,981.06405 a 1.9182301,1.9182301 0 1 1 3.8364599,0 1.9182301,1.9182301 0 0 1 -3.8364599,0 m 45.7665769,0.0895 a 1.9182301,1.9182301 0 0 1 3.83646,0 1.9182301,1.9182301 0 0 1 -3.83646,0 m -40.213708,2.628 c 0.882583,-0.39191 1.281289,-1.42632 0.889372,-2.31076 l -0.851106,-1.9244 3.347027,0 0,15.08664 -6.752688,0 A 23.61682,23.61682 0 0 1 9.9533431,985.6177 Z m 14.000981,0.37094 0,-4.44687 7.970407,0 c 0.411667,0 2.906971,0.47586 2.906971,2.34163 0,1.54915 -1.91391,2.10462 -3.487748,2.10462 z m -10.881697,23.94271 a 1.9182301,1.9182301 0 1 1 3.83646,0 1.9182301,1.9182301 0 0 1 -3.83646,0 m 28.42227,0.09 a 1.9182305,1.9182305 0 1 1 3.836461,0 1.9182305,1.9182305 0 0 1 -3.836461,0 m 0.593121,-4.35 c -0.94492,-0.2024 -1.874409,0.3987 -2.076848,1.3455 l -0.962818,4.4932 a 23.61682,23.61682 0 0 1 -19.695188,-0.095 l -0.962201,-4.4931 c -0.202438,-0.9456 -1.131928,-1.5479 -2.076231,-1.3449 l -3.966687,0.8517 a 23.61682,23.61682 0 0 1 -2.050927,-2.4175 l 19.300802,0 c 0.218486,0 0.364143,-0.039 0.364143,-0.2382 l 0,-6.82739 c 0,-0.19874 -0.145657,-0.23824 -0.364143,-0.23824 l -5.64483,0 0,-4.32777 6.105255,0 c 0.557324,0 2.979799,0.15924 3.754374,3.25571 0.242556,0.95232 0.775192,4.05001 1.139335,5.04183 0.362908,1.11218 1.840464,3.33406 3.414919,3.33406 l 9.965168,0 a 23.61682,23.61682 0 0 1 -2.187325,2.5317 z m 10.717525,-18.02629 a 23.61682,23.61682 0 0 1 0.04999,4.1 l -2.423092,0 c -0.242556,0 -0.340073,0.15924 -0.340073,0.39685 l 0,1.11283 c 0,2.61935 -1.476938,3.18902 -2.771188,3.33406 -1.232531,0.13887 -2.598992,-0.51597 -2.767485,-1.27018 -0.727051,-4.08953 -1.938598,-4.96286 -3.85189,-6.47189 2.374334,-1.5078 4.84495,-3.73215 4.84495,-6.70948 0,-3.21495 -2.203989,-5.23996 -3.706233,-6.23302 -2.107707,-1.38929 -4.441307,-1.66765 -5.070842,-1.66765 l -25.059813,0 a 23.61682,23.61682 0 0 1 13.212828,-7.4569 l 2.953877,3.09892 c 0.667801,0.69927 1.773808,0.72519 2.472468,0.0568 l 3.305059,-3.16126 a 23.61682,23.61682 0 0 1 16.16794,11.51494 l -2.262623,5.11034 c -0.390682,0.88444 0.008,1.91885 0.889989,2.31077 z m 5.642979,0.0827 -0.07715,-0.79 2.330515,-2.17375 c 0.474003,-0.44191 0.296869,-1.33128 -0.309213,-1.55717 l -2.979183,-1.11403 -0.233298,-0.76902 1.858364,-2.5811 c 0.378955,-0.52461 0.03086,-1.36214 -0.607318,-1.46706 l -3.141503,-0.51103 -0.377721,-0.70545 1.320172,-2.89772 c 0.27033,-0.59003 -0.232064,-1.34485 -0.881349,-1.32017 l -3.188409,0.1111 -0.503628,-0.61102 0.732605,-3.10571 c 0.148126,-0.63077 -0.491901,-1.27141 -1.12267,-1.12329 l -3.105089,0.73199 -0.612254,-0.50363 0.111712,-3.1884 c 0.02469,-0.64559 -0.730754,-1.14983 -1.319555,-0.88197 l -2.897095,1.32079 -0.70545,-0.37834 -0.512268,-3.14212 c -0.103688,-0.63694 -0.941834,-0.98504 -1.466446,-0.60732 l -2.582946,1.85837 -0.767785,-0.23268 -1.11403,-2.9798 c -0.225892,-0.60732 -1.115882,-0.78198 -1.556557,-0.31045 l -2.173747,2.33236 -0.790005,-0.0771 -1.678759,-2.71256 c -0.339456,-0.5493 -1.248578,-0.5493 -1.586799,0 l -1.67876,2.71256 -0.790622,0.0771 -2.174364,-2.33236 c -0.440675,-0.47153 -1.330664,-0.29687 -1.556556,0.31045 l -1.11403,2.9798 -0.768403,0.23268 -2.582328,-1.85837 c -0.524613,-0.37895 -1.363376,-0.0296 -1.467064,0.60732 l -0.512268,3.14212 -0.70545,0.37834 -2.897095,-1.32079 c -0.588801,-0.2691 -1.344243,0.23638 -1.319555,0.88197 l 0.111094,3.1884 -0.612253,0.50363 -3.105089,-0.73199 c -0.630769,-0.14689 -1.271414,0.49252 -1.123288,1.12329 l 0.731372,3.10571 -0.502394,0.61102 -3.1884099,-0.1111 c -0.643113,-0.0185 -1.149827,0.73014 -0.881966,1.32017 l 1.320789,2.89772 -0.378338,0.70545 -3.1415035,0.51103 c -0.638176,0.10369 -0.983803,0.94245 -0.607316,1.46706 l 1.858363,2.5811 -0.233299,0.76902 -2.979799,1.11403 c -0.604847,0.22589 -0.781981,1.11526 -0.309212,1.55717 l 2.331131,2.17375 -0.07715,0.79 -2.711938,1.67876 c -0.5493,0.33946 -0.5493,1.24858 0,1.5868 l 2.711938,1.67876 0.07715,0.79003 -2.331131,2.17437 c -0.472769,0.44067 -0.295635,1.32943 0.309212,1.55655 l 2.979799,1.11403 0.233299,0.76902 -1.858363,2.58171 c -0.377721,0.52586 -0.03024,1.36396 0.607933,1.46646 l 3.1408865,0.511 0.378338,0.7067 -1.320789,2.8965 c -0.269095,0.5888 0.238853,1.3461 0.881966,1.3201 l 3.1871759,-0.1117 0.503628,0.6123 -0.731372,3.1063 c -0.148126,0.6295 0.492519,1.269 1.123288,1.1208 l 3.105089,-0.7313 0.612253,0.5024 -0.111094,3.189 c -0.02469,0.6456 0.730754,1.1504 1.319555,0.8813 l 2.897095,-1.3201 0.70545,0.3783 0.512268,3.1403 c 0.103688,0.6394 0.942451,0.985 1.467064,0.6085 l 2.581093,-1.8596 0.76902,0.2339 1.11403,2.9786 c 0.225892,0.6048 1.115882,0.7832 1.556556,0.3092 l 2.174365,-2.3311 0.790622,0.079 1.67876,2.7119 c 0.338221,0.5468 1.247343,0.5481 1.586798,0 l 1.67876,-2.7119 0.790005,-0.079 2.173747,2.3311 c 0.440675,0.474 1.330664,0.2956 1.556556,-0.3092 l 1.11403,-2.9786 0.769021,-0.2339 2.58171,1.8596 c 0.524613,0.3765 1.362758,0.03 1.466447,-0.6085 l 0.512268,-3.1403 0.70545,-0.3783 2.897095,1.3201 c 0.5888,0.2691 1.343008,-0.2345 1.319555,-0.8813 l -0.111095,-3.189 0.611637,-0.5024 3.105089,0.7313 c 0.630769,0.1482 1.270796,-0.4913 1.12267,-1.1208 l -0.731371,-3.1063 0.502393,-0.6123 3.18841,0.1117 c 0.643113,0.026 1.151679,-0.7313 0.881349,-1.3201 l -1.320172,-2.8965 0.377721,-0.7067 3.141503,-0.511 c 0.639411,-0.1025 0.986273,-0.9406 0.607317,-1.46646 l -1.858363,-2.58171 0.233298,-0.76902 2.979183,-1.11403 c 0.606082,-0.22712 0.783215,-1.11588 0.309213,-1.55655 l -2.330515,-2.17437 0.07715,-0.79003 2.71194,-1.67876 c 0.5493,-0.33822 0.549917,-1.24734 6.17e-4,-1.5868 z"
       inkscape:connector-curvature="0" />
    <text
       xml:space="preserve"
       style="font-style:normal;font-weight:normal;font-size:47.92011642px;line-height:125%;font-family:sans-serif;letter-spacing:-6.27753544px;word-spacing:0px;fill:#f4960f;fill-opacity:0.94117647;stroke:none;stroke-width:1px;stroke-linecap:butt;stroke-linejoin:miter;stroke-opacity:1"
       x="88.791412"
       y="749.72253"
       id="text4201"
       sodipodi:linespacing="125%"
       transform="scale(0.74242936,1.3469295)"><tspan
         sodipodi:role="line"
         id="tspan4203"
         x="88.791412"
         y="749.72253"
         style="font-style:normal;font-variant:normal;font-weight:bold;font-stretch:normal;font-family:Norasi;-inkscape-font-specification:'Norasi Bold';letter-spacing:-1.4016633px;fill:#f4960f;fill-opacity:0.94117647">&lt;T&gt;</tspan></text>
  </g>
</svg>
